<?xml version="1.0" standalone="no"?>
<!DOCTYPE svg PUBLIC "-//W3C//DTD SVG 20010904//EN"
 "http://www.w3.org/TR/2001/REC-SVG-20010904/DTD/svg10.dtd">
<svg version="1.0" xmlns="http://www.w3.org/2000/svg"
 width="1024.000000pt" height="1024.000000pt" viewBox="0 0 1024.000000 1024.000000"
 preserveAspectRatio="xMidYMid meet">
<metadata>
Created by potrace 1.11, written by Peter Selinger 2001-2013
</metadata>
<g transform="translate(0.000000,1024.000000) scale(0.100000,-0.100000)"
fill="#000000" stroke="none">
<path d="M2560 9553 c-410 -16 -668 -66 -895 -171 -55 -26 -101 -50 -103 -54
-2 -5 -12 -8 -23 -8 -10 0 -19 -4 -19 -10 0 -5 -5 -10 -10 -10 -11 0 -134 -80
-180 -118 -191 -153 -328 -323 -439 -542 -90 -177 -132 -309 -165 -520 -41
-261 -41 -275 -41 -2945 0 -1413 3 -2633 8 -2710 21 -397 72 -621 201 -872 96
-189 206 -332 359 -468 113 -102 214 -168 372 -246 196 -96 371 -144 617 -168
57 -6 128 -14 158 -17 80 -10 5167 -13 5345 -3 307 17 524 51 691 110 90 31
155 58 164 68 3 4 39 23 81 44 388 192 710 618 808 1068 29 133 50 307 59 478
4 80 7 1303 7 2716 0 2760 1 2720 -51 3004 -35 192 -66 285 -151 456 -164 327
-403 563 -741 729 -232 115 -467 165 -865 186 -141 7 -5015 10 -5187 3z"/>
</g>
</svg>
